<svg xmlns="http://www.w3.org/2000/svg" version="1.1" xmlns:xlink="http://www.w3.org/1999/xlink" xmlns:svgjs="http://svgjs.com/svgjs" width="512" height="512" x="0" y="0" viewBox="0 0 512 512" style="enable-background:new 0 0 512 512" xml:space="preserve" class=""><g><path d="M480.36 494.742h-14.382V43.146a8.629 8.629 0 0 0-8.629-8.629H296.27a8.628 8.628 0 0 0-8.629 8.629v37.393h-17.258V43.146a8.629 8.629 0 0 0-8.629-8.629H224.36V8.629c0-4.767-3.864-8.629-8.629-8.629s-8.629 3.862-8.629 8.629v25.888h-37.393a8.628 8.628 0 0 0-8.629 8.629v37.393h-25.888a8.628 8.628 0 0 0-8.629 8.629v71.91h-71.91a8.628 8.628 0 0 0-8.629 8.629v325.034H31.64c-4.766 0-8.629 3.862-8.629 8.629S26.875 512 31.64 512h448.72c4.766 0 8.629-3.862 8.629-8.629s-3.864-8.629-8.629-8.629zM178.337 51.775h74.786v28.764h-74.786V51.775zm-28.764 442.967h-5.753V480.36c0-4.767-3.864-8.629-8.629-8.629s-8.629 3.862-8.629 8.629v14.382h-5.753v-28.764h28.764v28.764zm57.528-221.484v221.484h-40.27v-37.393a8.629 8.629 0 0 0-8.629-8.629H112.18a8.628 8.628 0 0 0-8.629 8.629v37.393h-40.27V178.337h143.82v94.921zm8.629-112.179h-71.91V97.798h143.82v166.831h-63.28v-28.764h25.888c4.766 0 8.629-3.862 8.629-8.629s-3.864-8.629-8.629-8.629H224.36v-28.764h25.888c4.766 0 8.629-3.862 8.629-8.629s-3.864-8.629-8.629-8.629H224.36v-2.876a8.629 8.629 0 0 0-8.63-8.63zm152.45 333.663H224.36V281.888h143.82v212.854zm80.539 0h-63.281v-232.99c0-4.767-3.864-8.629-8.629-8.629s-8.629 3.862-8.629 8.629v2.876h-17.258v-2.876c0-4.767-3.864-8.629-8.629-8.629s-8.629 3.862-8.629 8.629v2.876H304.9V51.775h143.82v442.967z" fill="#f00000" data-original="#000000" class=""></path><path d="M261.753 477.485a8.63 8.63 0 0 0 8.629-8.629V307.778c0-4.767-3.864-8.629-8.629-8.629s-8.629 3.862-8.629 8.629v161.079a8.628 8.628 0 0 0 8.629 8.628zM296.27 477.485a8.63 8.63 0 0 0 8.629-8.629V307.778c0-4.767-3.864-8.629-8.629-8.629s-8.629 3.862-8.629 8.629v161.079a8.628 8.628 0 0 0 8.629 8.628zM330.786 477.485a8.63 8.63 0 0 0 8.629-8.629V307.778c0-4.767-3.864-8.629-8.629-8.629s-8.629 3.862-8.629 8.629v161.079a8.629 8.629 0 0 0 8.629 8.628zM342.292 109.303a8.628 8.628 0 0 0 8.629-8.629V89.169c0-4.767-3.864-8.629-8.629-8.629s-8.629 3.862-8.629 8.629v11.506a8.628 8.628 0 0 0 8.629 8.628zM376.809 109.303a8.628 8.628 0 0 0 8.629-8.629V89.169c0-4.767-3.864-8.629-8.629-8.629s-8.629 3.862-8.629 8.629v11.506a8.628 8.628 0 0 0 8.629 8.628zM411.326 109.303a8.628 8.628 0 0 0 8.629-8.629V89.169c0-4.767-3.864-8.629-8.629-8.629s-8.629 3.862-8.629 8.629v11.506a8.628 8.628 0 0 0 8.629 8.628zM342.292 166.831a8.628 8.628 0 0 0 8.629-8.629v-11.506c0-4.767-3.864-8.629-8.629-8.629s-8.629 3.862-8.629 8.629v11.506a8.628 8.628 0 0 0 8.629 8.629zM376.809 166.831a8.628 8.628 0 0 0 8.629-8.629v-11.506c0-4.767-3.864-8.629-8.629-8.629s-8.629 3.862-8.629 8.629v11.506a8.628 8.628 0 0 0 8.629 8.629zM411.326 166.831a8.628 8.628 0 0 0 8.629-8.629v-11.506c0-4.767-3.864-8.629-8.629-8.629s-8.629 3.862-8.629 8.629v11.506a8.628 8.628 0 0 0 8.629 8.629zM342.292 224.36a8.628 8.628 0 0 0 8.629-8.629v-11.506c0-4.767-3.864-8.629-8.629-8.629s-8.629 3.862-8.629 8.629v11.506a8.629 8.629 0 0 0 8.629 8.629zM376.809 224.36a8.628 8.628 0 0 0 8.629-8.629v-11.506c0-4.767-3.864-8.629-8.629-8.629s-8.629 3.862-8.629 8.629v11.506a8.629 8.629 0 0 0 8.629 8.629zM411.326 224.36a8.628 8.628 0 0 0 8.629-8.629v-11.506c0-4.767-3.864-8.629-8.629-8.629s-8.629 3.862-8.629 8.629v11.506a8.629 8.629 0 0 0 8.629 8.629zM100.674 247.371a8.628 8.628 0 0 0 8.629-8.629v-11.506c0-4.767-3.864-8.629-8.629-8.629s-8.629 3.862-8.629 8.629v11.506a8.63 8.63 0 0 0 8.629 8.629zM135.191 247.371a8.628 8.628 0 0 0 8.629-8.629v-11.506c0-4.767-3.864-8.629-8.629-8.629s-8.629 3.862-8.629 8.629v11.506a8.629 8.629 0 0 0 8.629 8.629zM169.708 247.371a8.628 8.628 0 0 0 8.629-8.629v-11.506c0-4.767-3.864-8.629-8.629-8.629s-8.629 3.862-8.629 8.629v11.506a8.629 8.629 0 0 0 8.629 8.629zM100.674 304.899a8.628 8.628 0 0 0 8.629-8.629v-11.506c0-4.767-3.864-8.629-8.629-8.629s-8.629 3.862-8.629 8.629v11.506a8.63 8.63 0 0 0 8.629 8.629zM135.191 304.899a8.628 8.628 0 0 0 8.629-8.629v-11.506c0-4.767-3.864-8.629-8.629-8.629s-8.629 3.862-8.629 8.629v11.506a8.629 8.629 0 0 0 8.629 8.629zM169.708 304.899a8.628 8.628 0 0 0 8.629-8.629v-11.506c0-4.767-3.864-8.629-8.629-8.629s-8.629 3.862-8.629 8.629v11.506a8.629 8.629 0 0 0 8.629 8.629zM100.674 362.427a8.628 8.628 0 0 0 8.629-8.629v-11.506c0-4.767-3.864-8.629-8.629-8.629s-8.629 3.862-8.629 8.629v11.506a8.629 8.629 0 0 0 8.629 8.629zM135.191 362.427a8.628 8.628 0 0 0 8.629-8.629v-11.506c0-4.767-3.864-8.629-8.629-8.629s-8.629 3.862-8.629 8.629v11.506a8.628 8.628 0 0 0 8.629 8.629zM169.708 362.427a8.628 8.628 0 0 0 8.629-8.629v-11.506c0-4.767-3.864-8.629-8.629-8.629s-8.629 3.862-8.629 8.629v11.506a8.628 8.628 0 0 0 8.629 8.629zM100.674 419.955a8.628 8.628 0 0 0 8.629-8.629V399.82c0-4.767-3.864-8.629-8.629-8.629s-8.629 3.862-8.629 8.629v11.506a8.629 8.629 0 0 0 8.629 8.629zM135.191 419.955a8.628 8.628 0 0 0 8.629-8.629V399.82c0-4.767-3.864-8.629-8.629-8.629s-8.629 3.862-8.629 8.629v11.506a8.628 8.628 0 0 0 8.629 8.629zM169.708 419.955a8.628 8.628 0 0 0 8.629-8.629V399.82c0-4.767-3.864-8.629-8.629-8.629s-8.629 3.862-8.629 8.629v11.506a8.628 8.628 0 0 0 8.629 8.629zM411.326 281.888a8.628 8.628 0 0 0 8.629-8.629v-11.506c0-4.767-3.864-8.629-8.629-8.629s-8.629 3.862-8.629 8.629v11.506a8.629 8.629 0 0 0 8.629 8.629zM411.326 339.416a8.628 8.628 0 0 0 8.629-8.629v-11.506c0-4.767-3.864-8.629-8.629-8.629s-8.629 3.862-8.629 8.629v11.506a8.629 8.629 0 0 0 8.629 8.629zM411.326 396.944a8.628 8.628 0 0 0 8.629-8.629v-11.506c0-4.767-3.864-8.629-8.629-8.629s-8.629 3.862-8.629 8.629v11.506a8.629 8.629 0 0 0 8.629 8.629zM411.326 454.472a8.628 8.628 0 0 0 8.629-8.629v-11.506c0-4.767-3.864-8.629-8.629-8.629s-8.629 3.862-8.629 8.629v11.506a8.629 8.629 0 0 0 8.629 8.629zM258.876 135.191a8.629 8.629 0 0 0-8.629-8.629h-69.034a8.628 8.628 0 0 0-8.629 8.629 8.629 8.629 0 0 0 8.629 8.629h69.034a8.628 8.628 0 0 0 8.629-8.629z" fill="#f00000" data-original="#000000" class=""></path></g></svg>