<svg xmlns="http://www.w3.org/2000/svg" version="1.1" xmlns:xlink="http://www.w3.org/1999/xlink" xmlns:svgjs="http://svgjs.com/svgjs" width="512" height="512" x="0" y="0" viewBox="0 0 256 256" style="enable-background:new 0 0 512 512" xml:space="preserve" class=""><g><path d="M128 191.268c-36.208 0-68.63-16.384-89.453-30.128C16.1 146.326 2.293 131.692 1.716 131.077a4.5 4.5 0 0 1 0-6.154c.577-.615 14.388-15.249 36.831-30.063C59.37 81.116 91.792 64.732 128 64.732s68.63 16.384 89.453 30.128c22.443 14.814 36.254 29.447 36.83 30.063a4.5 4.5 0 0 1 0 6.154c-.576.616-14.387 15.249-36.83 30.063-20.823 13.744-53.245 30.128-89.453 30.128zM11.375 128C23.752 139.91 71.741 182.268 128 182.268c56.336 0 104.264-42.352 116.628-54.266C232.254 116.1 184.263 73.732 128 73.732S23.753 116.089 11.375 128z" fill="#f00000" data-original="#000000"></path><path d="M128 191.268A63.268 63.268 0 1 1 191.269 128 63.34 63.34 0 0 1 128 191.268zm0-117.536A54.268 54.268 0 1 0 182.269 128 54.33 54.33 0 0 0 128 73.732z" fill="#f00000" data-original="#000000"></path><path d="M128 56.442a4.5 4.5 0 0 1-4.5-4.5V34.934a4.5 4.5 0 0 1 9 0v17.008a4.5 4.5 0 0 1-4.5 4.5zM89.975 66.633a4.5 4.5 0 0 1-3.9-2.251l-8.5-14.73a4.5 4.5 0 0 1 7.794-4.5l8.5 14.73a4.5 4.5 0 0 1-3.893 6.751zM81.463 213.1a4.5 4.5 0 0 1-3.893-6.751l8.5-14.729a4.5 4.5 0 1 1 7.794 4.5l-8.5 14.729a4.5 4.5 0 0 1-3.901 2.251zM128 225.566a4.5 4.5 0 0 1-4.5-4.5v-17.007a4.5 4.5 0 1 1 9 0v17.007a4.5 4.5 0 0 1-4.5 4.5zM174.537 213.1a4.5 4.5 0 0 1-3.9-2.251l-8.5-14.729a4.5 4.5 0 0 1 7.795-4.5l8.5 14.729a4.5 4.5 0 0 1-3.894 6.751zM166.025 66.633a4.5 4.5 0 0 1-3.893-6.751l8.5-14.73a4.5 4.5 0 0 1 7.8 4.5l-8.5 14.73a4.5 4.5 0 0 1-3.907 2.251zM162.092 126.162a4.5 4.5 0 0 1-4.5-4.5v-10.186H147.4a4.5 4.5 0 0 1 0-9h14.688a4.5 4.5 0 0 1 4.5 4.5v14.686a4.5 4.5 0 0 1-4.496 4.5z" fill="#f00000" data-original="#000000"></path><path d="M93.909 153.527a4.5 4.5 0 0 1-3.182-7.682l26.994-26.994a4.5 4.5 0 0 1 3.182-1.318 4.5 4.5 0 0 1 3.182 1.318l9.883 9.884 24.942-24.942a4.5 4.5 0 0 1 6.363 6.365l-28.124 28.123a4.5 4.5 0 0 1-3.181 1.318 4.5 4.5 0 0 1-3.182-1.318L120.9 128.4l-23.809 23.809a4.485 4.485 0 0 1-3.182 1.318z" fill="#f00000" data-original="#000000"></path></g></svg>