<?xml version="1.0" encoding="utf-8"?>
<!-- Uploaded to: SVG Repo, www.svgrepo.com, Generator: SVG Repo Mixer Tools -->
<!DOCTYPE svg PUBLIC "-//W3C//DTD SVG 1.1//EN" "http://www.w3.org/Graphics/SVG/1.1/DTD/svg11.dtd">
<svg fill="#000000" version="1.1" id="Layer_1" xmlns="http://www.w3.org/2000/svg" xmlns:xlink="http://www.w3.org/1999/xlink" 
	 width="800px" height="800px" viewBox="0 0 512 512" enable-background="new 0 0 512 512" xml:space="preserve">
<g>
	<path d="M265.733,345.419c0-3.016,0.13-6.046,0.39-9.124l-6.304-3.633c-14.828-8.596-19.94-27.666-11.354-42.505l18.557-32.136
		c5.53-9.605,15.867-15.571,26.965-15.571c5.435,0,10.821,1.439,15.549,4.173l6.299,3.633c5.001-3.432,10.275-6.472,15.791-9.093
		v-7.307c0-17.157,13.959-31.121,31.128-31.121h37.11c6.402,0,12.352,1.945,17.304,5.273v-35.478
		c0-28.765-23.33-52.088-52.099-52.088h-69.846V97.056c0-31.266-25.438-56.694-56.692-56.694h-49.749
		c-31.258,0-56.696,25.429-56.696,56.694v23.388H62.209c-28.751,0-52.081,23.323-52.081,52.088v173.934
		c0,28.765,23.33,52.087,52.081,52.087h185.294c-6.98-14.503-1.818-32.174,12.348-40.364l6.272-3.626
		C265.863,351.475,265.733,348.443,265.733,345.419z M173.248,97.056c0-8.563,6.962-15.533,15.535-15.533h49.749
		c8.551,0,15.531,6.971,15.531,15.533v23.388h-80.814V97.056z"/>
	<path d="M494.54,372.44l-15.823-9.134c1.062-5.811,1.689-11.77,1.689-17.888c0-6.108-0.627-12.067-1.689-17.872l15.823-9.131
		c3.375-1.947,5.82-5.146,6.832-8.9c1.016-3.754,0.465-7.759-1.464-11.127l-18.553-32.141c-1.961-3.369-5.144-5.822-8.909-6.834
		c-1.253-0.329-2.507-0.499-3.792-0.499c-2.543,0-5.082,0.667-7.333,1.97l-15.804,9.124c-9.053-7.726-19.538-13.787-30.985-17.87
		v-18.282c0-8.097-6.563-14.657-14.667-14.657h-37.11c-8.104,0-14.662,6.561-14.662,14.657v18.282
		c-11.448,4.083-21.933,10.136-30.985,17.87l-15.804-9.134c-2.314-1.334-4.826-1.96-7.315-1.96c-5.068,0-9.988,2.63-12.719,7.333
		l-18.557,32.141c-4.052,7.002-1.639,15.967,5.373,20.019l15.822,9.14c-1.062,5.805-1.706,11.764-1.706,17.872
		c0,6.118,0.645,12.084,1.706,17.896l-15.822,9.134c-7.011,4.052-9.424,13.015-5.373,20.025l18.557,32.143
		c2.717,4.694,7.651,7.324,12.719,7.324c2.489,0,5.001-0.629,7.315-1.963l15.822-9.133c9.066,7.718,19.52,13.764,30.967,17.841
		v18.297c0,8.097,6.559,14.655,14.662,14.655h37.11c8.103,0,14.667-6.559,14.667-14.655v-18.297
		c11.417-4.077,21.897-10.13,30.967-17.857l15.822,9.143c2.252,1.294,4.777,1.961,7.333,1.961c1.267,0,2.539-0.161,3.792-0.499
		c3.765-1.005,6.948-3.456,8.909-6.825l18.553-32.141c1.929-3.369,2.48-7.374,1.464-11.128
		C500.359,377.586,497.915,374.385,494.54,372.44z M381.312,409.028c-35.086,0-63.609-28.532-63.609-63.609
		c0-35.068,28.522-63.591,63.609-63.591c35.068,0,63.591,28.522,63.591,63.591C444.903,380.496,416.38,409.028,381.312,409.028z"/>
	<path d="M381.312,298.292c-25.984,0-47.143,21.145-47.143,47.127c0,25.991,21.158,47.146,47.143,47.146
		c25.985,0,47.125-21.154,47.125-47.146C428.437,319.437,407.296,298.292,381.312,298.292z"/>
</g>
</svg>